<?xml version="1.0" encoding="UTF-8"?>
<!DOCTYPE svg PUBLIC "-//W3C//DTD SVG 1.1//EN" "http://www.w3.org/Graphics/SVG/1.1/DTD/svg11.dtd">
<svg xmlns="http://www.w3.org/2000/svg" version="1.1" width="1100px" height="600px" style="shape-rendering:geometricPrecision; text-rendering:geometricPrecision; image-rendering:optimizeQuality; fill-rule:evenodd; clip-rule:evenodd" xmlns:xlink="http://www.w3.org/1999/xlink">
<g><path style="opacity:1" fill="#fff" d="M -0.5,-0.5 C 366.167,-0.5 732.833,-0.5 1099.5,-0.5C 1099.5,199.5 1099.5,399.5 1099.5,599.5C 732.833,599.5 366.167,599.5 -0.5,599.5C -0.5,399.5 -0.5,199.5 -0.5,-0.5 Z"/></g>
<g><path style="opacity:1" fill="#111" d="M 393.5,124.5 C 414.51,123.678 424.677,133.678 424,154.5C 419.348,169.466 409.181,175.966 393.5,174C 379.102,168.916 372.935,158.749 375,143.5C 378.017,133.984 384.184,127.651 393.5,124.5 Z"/></g>
<g><path style="opacity:1" fill="#111" d="M 129.5,150.5 C 147.329,149.338 165.329,149.171 183.5,150C 207.615,155.004 221.115,169.837 224,194.5C 224.5,229.498 224.667,264.498 224.5,299.5C 241.167,299.5 257.833,299.5 274.5,299.5C 273.057,272.066 259.057,255.233 232.5,249C 264.274,241.621 277.774,221.788 273,189.5C 268.265,179.87 260.431,174.87 249.5,174.5C 239.585,174.868 232.085,179.201 227,187.5C 230.746,166.42 243.246,153.92 264.5,150C 303.335,146.839 323.168,164.673 324,203.5C 321.267,231.232 306.1,246.732 278.5,250C 298.111,251.645 312.277,261.145 321,278.5C 322.408,282.057 323.408,285.724 324,289.5C 324.086,315.859 324.753,342.192 326,368.5C 327.362,378.722 331.529,387.555 338.5,395C 340.67,396.586 343.004,397.92 345.5,399C 302.5,399.667 259.5,399.667 216.5,399C 193.057,395.219 179.224,381.719 175,358.5C 174.98,300.463 174.314,242.463 173,184.5C 166.011,163.689 151.511,152.356 129.5,150.5 Z"/></g>
<g><path style="opacity:1" fill="#111" d="M 329.5,200.5 C 347.329,199.338 365.329,199.171 383.5,200C 406.719,204.224 420.219,218.057 424,241.5C 424.5,269.165 424.667,296.831 424.5,324.5C 407.833,324.5 391.167,324.5 374.5,324.5C 374.667,296.165 374.5,267.831 374,239.5C 368.87,215.507 354.037,202.507 329.5,200.5 Z"/></g>
<g><path style="opacity:1" fill="#111" d="M 467.5,199.5 C 489.22,199.044 510.887,199.544 532.5,201C 543.767,204.769 549.434,212.602 549.5,224.5C 531.497,224.333 513.497,224.5 495.5,225C 487.788,227.922 484.955,233.422 487,241.5C 488.458,243.96 490.291,246.127 492.5,248C 500.176,248.752 507.509,250.752 514.5,254C 519.219,257.389 522.386,261.889 524,267.5C 524.667,296.167 524.667,324.833 524,353.5C 521.414,378.572 507.914,393.739 483.5,399C 461.167,399.667 438.833,399.667 416.5,399C 389.267,393.69 375.267,377.19 374.5,349.5C 391.167,349.5 407.833,349.5 424.5,349.5C 427.945,371.234 440.278,378.734 461.5,372C 468.31,368.17 472.477,362.337 474,354.5C 474.5,327.835 474.667,301.169 474.5,274.5C 461.331,273.821 453.164,267.154 450,254.5C 449.333,242.5 449.333,230.5 450,218.5C 452.669,209.099 458.503,202.765 467.5,199.5 Z"/></g>
<g><path style="opacity:1" fill="#111" d="M 614.5,199.5 C 635.836,199.333 657.169,199.5 678.5,200C 708.235,203.232 723.569,219.732 724.5,249.5C 707.833,249.5 691.167,249.5 674.5,249.5C 672.307,230.546 661.64,222.379 642.5,225C 632.944,227.592 627.11,233.759 625,243.5C 624.5,270.498 624.333,297.498 624.5,324.5C 636.811,324.991 644.978,330.991 649,342.5C 649.667,354.5 649.667,366.5 649,378.5C 647.113,389.807 640.613,396.64 629.5,399C 609.5,399.667 589.5,399.667 569.5,399C 556.786,395.784 550.119,387.618 549.5,374.5C 567.503,374.667 585.503,374.5 603.5,374C 611.23,371.041 614.063,365.541 612,357.5C 610.108,353.942 607.275,351.442 603.5,350C 590.55,350.455 581.383,344.955 576,333.5C 574.364,302.881 574.031,272.215 575,241.5C 578.929,218.537 592.095,204.537 614.5,199.5 Z"/></g>
<g><path style="opacity:1" fill="#111" d="M 814.5,350.5 C 816.655,350.628 818.655,350.128 820.5,349C 819.207,348.51 817.873,348.343 816.5,348.5C 792.993,345.159 779.16,331.826 775,308.5C 774.667,284.5 774.333,260.5 774,236.5C 773.251,225.919 769.918,216.252 764,207.5C 760.572,203.732 756.405,201.232 751.5,200C 793.833,199.333 836.167,199.333 878.5,200C 895.259,201.456 908.426,208.956 918,222.5C 920.994,227.816 922.994,233.482 924,239.5C 924.333,296.167 924.667,352.833 925,409.5C 929.7,432.198 943.533,445.365 966.5,449C 949.167,449.667 931.833,449.667 914.5,449C 890.744,443.232 877.578,428.065 875,403.5C 874.5,368.835 874.333,334.168 874.5,299.5C 857.833,299.5 841.167,299.5 824.5,299.5C 825.948,326.952 839.948,343.785 866.5,350C 837.164,356.339 823.33,374.506 825,404.5C 828.096,417.158 836.263,423.825 849.5,424.5C 859.427,424.127 866.927,419.794 872,411.5C 868.138,433.027 855.305,445.527 833.5,449C 796.462,451.806 776.795,434.639 774.5,397.5C 775.807,377.015 785.474,362.181 803.5,353C 807.014,351.438 810.681,350.605 814.5,350.5 Z"/></g>
<g><path style="opacity:1" fill="#fff" d="M 844.5,224.5 C 855.352,223.609 864.185,227.276 871,235.5C 872.275,237.717 873.275,240.051 874,242.5C 874.5,253.161 874.667,263.828 874.5,274.5C 857.833,274.5 841.167,274.5 824.5,274.5C 824.064,262.757 824.564,251.09 826,239.5C 829.943,231.721 836.109,226.721 844.5,224.5 Z"/></g>
<g><path style="opacity:1" fill="#111" d="M 674.5,274.5 C 691.167,274.5 707.833,274.5 724.5,274.5C 724.333,302.835 724.5,331.169 725,359.5C 729.7,382.198 743.533,395.365 766.5,399C 749.167,399.667 731.833,399.667 714.5,399C 690.744,393.232 677.578,378.065 675,353.5C 674.5,327.169 674.333,300.835 674.5,274.5 Z"/></g>
<g><path style="opacity:1" fill="#fff" d="M 224.5,324.5 C 241.167,324.5 257.833,324.5 274.5,324.5C 274.666,334.839 274.5,345.172 274,355.5C 270.434,367.547 262.267,373.88 249.5,374.5C 236.263,373.825 228.096,367.158 225,354.5C 224.5,344.506 224.334,334.506 224.5,324.5 Z"/></g>
<!-- <g><path style="opacity:1" fill="#665e66" d="M 816.5,348.5 C 817.873,348.343 819.207,348.51 820.5,349C 818.655,350.128 816.655,350.628 814.5,350.5C 815.167,349.833 815.833,349.167 816.5,348.5 Z"/></g> -->
<g><path style="opacity:1" fill="#111" d="M 693.5,424.5 C 714.51,423.678 724.677,433.678 724,454.5C 719.348,469.466 709.181,475.966 693.5,474C 679.102,468.916 672.935,458.749 675,443.5C 678.017,433.984 684.184,427.651 693.5,424.5 Z"/></g>
</svg>
