<?xml version="1.0" encoding="UTF-8" standalone="no"?>
<!-- Created with Inkscape (http://www.inkscape.org/) -->
<svg
   xmlns:svg="http://www.w3.org/2000/svg"
   xmlns="http://www.w3.org/2000/svg"
   version="1.0"
   width="590"
   height="580"
   id="svg2">
  <defs
     id="defs4" />
  <g
     transform="translate(-453.4569,-459.47952)"
     id="layer1">
    <path
       d="M 463.4569,463.47965 L 463.4569,511.78459 L 511.76198,511.78459 L 511.76198,482.80155 L 482.77893,482.80155 L 482.77893,492.46256 L 502.10096,492.46256 L 502.10096,502.12358 L 473.11791,502.12358 L 473.11791,473.14053 L 521.423,473.14053 L 521.423,569.75068 L 550.40605,569.75068 L 550.40605,560.0898 L 550.40605,521.44561 L 540.74503,521.44561 L 540.74503,560.08967 L 531.08401,560.08967 L 531.08401,511.78459 L 560.06706,511.78459 L 560.06706,531.10662 L 589.05012,531.10662 L 589.05012,502.12358 L 579.3891,502.12358 L 579.3891,521.44561 L 569.72808,521.44561 L 569.72808,492.46256 L 598.71113,492.46256 L 598.71113,531.10675 L 608.37215,531.10662 L 608.37215,482.80155 L 540.74503,482.80155 L 540.74503,492.46256 L 560.06706,492.46256 L 560.06706,502.12358 L 531.08401,502.12358 L 531.08401,473.14053 L 618.03317,473.14053 L 618.03317,579.4117 L 579.3891,579.4117 L 579.3891,608.39474 L 656.67723,608.39474 L 656.67723,647.0388 L 685.66028,647.0388 L 685.66028,637.37779 L 666.33825,637.37779 L 666.33825,627.71677 L 695.3213,627.71677 L 695.3213,647.0388 L 714.64333,647.0388 L 714.64333,685.68286 L 762.94842,685.68286 L 762.94842,579.4117 L 714.64333,579.4117 L 714.64333,589.07271 L 753.2874,589.07271 L 753.2874,676.02185 L 724.30435,676.02185 L 724.30435,637.37779 L 704.98232,637.37779 L 704.98232,618.05576 L 666.33825,618.05576 L 666.33825,540.76764 L 637.3552,540.76764 L 637.3552,569.75068 L 647.01622,569.75068 L 647.01622,550.42865 L 656.67723,550.42865 L 656.67723,598.73373 L 647.01622,598.73373 L 647.01622,579.4117 L 637.3552,579.4117 L 637.3552,598.73373 L 589.05012,598.73373 L 589.05012,589.07271 L 627.69418,589.07271 L 627.69418,531.10662 L 675.99927,531.10662 L 685.66028,531.10662 L 685.66028,482.80155 L 637.3552,482.80155 L 637.3552,511.78459 L 647.01622,511.78459 L 666.33825,511.78459 L 666.33825,502.12358 L 647.01622,502.12358 L 647.01622,492.46256 L 675.99927,492.46256 L 675.99927,521.44561 L 627.69418,521.44561 L 627.69418,473.14053 L 695.3213,473.14053 L 695.3213,531.10662 L 704.98232,531.10662 L 704.98232,511.78459 L 724.30435,511.78459 L 724.30435,482.80155 L 714.64333,482.80155 L 714.64333,502.12358 L 704.98232,502.12358 L 704.98232,473.14053 L 733.96537,473.14053 L 733.96537,492.46256 L 820.91452,492.46256 L 820.91452,482.80155 L 743.62639,482.80155 L 743.62639,473.14053 L 830.57554,473.14053 L 830.57554,492.46256 L 840.23655,492.46256 L 840.23655,473.14053 L 1004.4738,473.14053 L 1004.4738,502.12358 L 907.86368,502.12358 L 907.86368,511.78459 L 1004.4738,511.78459 L 1004.4738,531.10662 L 1014.1349,531.10662 L 1014.1349,473.14053 L 1023.7959,473.14053 L 1023.7959,540.76764 L 994.81283,540.76764 L 994.81283,521.44561 L 898.20266,521.44561 L 898.20266,492.46256 L 994.81283,492.46256 L 994.81283,482.80155 L 849.89758,482.80155 L 849.89758,492.46256 L 888.54164,492.46256 L 888.54164,531.10662 L 946.50774,531.10662 L 946.50774,560.08967 L 898.20266,560.08967 L 898.20266,550.42865 L 936.84673,550.42865 L 936.84673,540.76764 L 888.54164,540.76764 L 888.54164,569.75068 L 956.16876,569.75068 L 956.16876,531.10662 L 985.15181,531.10662 L 985.15181,579.4117 L 975.4908,579.4117 L 975.4908,540.76764 L 965.82978,540.76764 L 965.82978,579.4117 L 888.54164,579.4117 L 888.54164,589.07271 L 994.81283,589.07271 L 994.81283,550.42865 L 1023.7959,550.42865 L 1023.7959,579.4117 L 1014.1349,579.4117 L 1014.1349,560.08967 L 1004.4738,560.08967 L 1004.4738,589.07271 L 1023.7959,589.07271 L 1023.7959,618.05576 L 985.15181,618.05576 L 985.15181,656.69982 L 965.82978,656.69982 L 965.82978,695.34388 L 956.16876,695.34388 L 956.16876,647.0388 L 975.4908,647.0388 L 975.4908,637.37779 L 956.16876,637.37779 L 956.16876,608.39474 L 965.82978,608.39474 L 965.82978,627.71677 L 975.4908,627.71677 L 975.4908,608.39474 L 1014.1349,608.39474 L 1014.1349,598.73373 L 946.50774,598.73373 L 946.50774,618.05576 L 936.84673,618.05576 L 936.84673,598.73373 L 888.54164,598.73373 L 888.54164,656.69982 L 811.2535,656.69982 L 811.2535,685.68286 L 820.91452,685.68299 L 820.91452,666.36096 L 830.57554,666.36096 L 830.57554,685.68286 L 936.84673,685.68286 L 936.84673,647.0388 L 927.18571,647.0388 L 927.18571,676.02185 L 840.23655,676.02185 L 840.23655,666.36083 L 898.20266,666.36083 L 898.20266,608.39474 L 927.18571,608.39474 L 927.18571,618.05576 L 907.86368,618.05576 L 907.86368,666.36083 L 917.52469,666.36083 L 917.52469,627.71677 L 927.18571,627.71677 L 927.18571,637.37779 L 936.84673,637.37779 L 936.84673,627.71677 L 946.50774,627.71677 L 946.50774,743.64895 L 985.15181,743.64895 L 985.15181,801.61504 L 1004.4738,801.61504 L 1004.4738,830.59808 L 898.20266,830.59808 L 898.20266,772.63199 L 849.89758,772.63199 L 849.89758,782.29301 L 869.21961,782.29301 L 869.21961,801.61504 L 878.88063,801.61504 L 878.88063,782.29301 L 888.54164,782.29301 L 888.54164,830.59808 L 878.88063,830.59808 L 878.88063,811.27605 L 869.21961,811.27605 L 869.21961,888.56417 L 666.33825,888.57623 L 666.33825,878.91521 L 685.66028,878.90316 L 685.66028,859.58112 L 695.3213,859.58112 L 695.3213,878.90316 L 704.98232,878.90316 L 704.98232,782.29301 L 801.59249,782.29301 L 801.59249,753.30996 L 685.66028,753.30996 L 685.66028,733.98794 L 656.67723,733.98794 L 656.67723,772.63199 L 618.03317,772.63199 L 618.03317,820.93707 L 656.67723,820.93707 L 656.67723,849.92011 L 637.3552,849.92011 L 637.3552,869.24252 L 598.71113,869.24252 L 598.71113,965.85231 L 550.40605,965.86437 L 550.40605,946.53028 L 531.08401,946.54233 L 531.08401,849.92011 L 521.423,849.92011 L 521.423,975.51333 L 531.08401,975.51333 L 531.08401,956.20335 L 540.74503,956.20335 L 540.74503,975.51333 L 627.69418,975.51333 L 627.69418,888.56417 L 618.03317,888.56417 L 618.03317,965.85231 L 608.37215,965.86437 L 608.37215,878.91521 L 637.3552,878.91521 L 637.3552,975.51333 L 647.01622,975.51333 L 647.01622,859.58112 L 666.33825,859.58112 L 666.33825,811.27605 L 627.69418,811.27605 L 627.69418,782.29301 L 685.66028,782.29301 L 685.66028,772.63199 L 666.33825,772.63199 L 666.33825,743.64895 L 675.99927,743.64895 L 675.99927,762.97098 L 791.93147,762.97098 L 791.93147,772.63199 L 695.3213,772.63199 L 695.3213,791.95402 L 637.3552,791.95402 L 637.3552,801.61504 L 695.3213,801.61504 L 695.3213,849.92011 L 685.66028,849.92011 L 685.66028,811.27605 L 675.99927,811.27605 L 675.99927,869.24252 L 656.67723,869.24252 L 656.67723,898.22519 L 675.99927,898.23725 L 675.99927,956.19129 L 704.98232,956.19129 L 704.98232,917.55928 L 753.2874,917.55928 L 753.2874,994.84752 L 762.94842,994.84752 L 762.94842,907.88621 L 695.3213,907.88621 L 695.3213,946.53028 L 685.66028,946.54233 L 685.66028,898.23725 L 772.60944,898.23725 L 772.60944,994.84752 L 782.27045,994.84752 L 782.27045,898.23725 L 869.21961,898.23729 L 869.21961,907.88632 L 791.93147,907.88621 L 791.93147,956.19129 L 801.59249,956.19141 L 801.59249,917.54734 L 811.2535,917.54734 L 811.2535,985.17452 L 801.59249,985.17452 L 801.59249,965.85231 L 791.93147,965.85231 L 791.93147,994.84752 L 820.91452,994.84752 L 820.91452,917.54734 L 878.88063,917.54734 L 878.88063,840.2591 L 965.82978,840.2591 L 965.82978,907.88621 L 956.16876,907.89827 L 956.16876,849.92011 L 888.54164,849.92011 L 888.54164,917.54723 L 917.52469,917.54723 L 917.52469,898.23729 L 907.86368,898.23729 L 907.86368,907.88632 L 898.20266,907.88632 L 898.20266,859.58124 L 907.86368,859.58124 L 907.86368,888.56429 L 917.52469,888.56429 L 917.52469,859.58124 L 946.50774,859.58124 L 946.50774,917.54723 L 975.4908,917.54723 L 975.4908,840.2591 L 1014.1349,840.2591 L 1014.1349,753.30996 L 1004.4738,753.30996 L 1004.4738,791.95402 L 994.81283,791.95402 L 994.81283,724.32692 L 1014.1349,724.32692 L 1014.1349,695.34388 L 1004.4738,695.34388 L 1004.4738,714.66591 L 965.82978,714.66591 L 965.82978,724.32692 L 985.15181,724.32692 L 985.15181,733.98794 L 956.16876,733.98794 L 956.16876,705.00489 L 994.81283,705.00489 L 994.81283,695.34388 L 975.4908,695.34388 L 975.4908,666.36083 L 994.81283,666.36083 L 994.81283,627.71677 L 1023.7959,627.71677 L 1023.7959,637.37779 L 1004.4738,637.37779 L 1004.4738,656.69982 L 1014.1349,656.69982 L 1014.1349,647.0388 L 1023.7959,647.0388 L 1023.7959,676.02185 L 1014.1349,676.02185 L 1014.1349,666.36083 L 1004.4738,666.36083 L 1004.4738,676.02185 L 985.15181,676.02185 L 985.15181,685.68286 L 1023.7959,685.68286 L 1023.7959,733.98794 L 1004.4738,733.98794 L 1004.4738,743.64895 L 1023.7959,743.64895 L 1023.7959,849.92011 L 985.15181,849.92011 L 985.15181,878.90316 L 1014.1349,878.90316 L 1013.9471,869.24252 L 994.81283,869.24252 L 994.81283,859.58124 L 1023.7959,859.58124 L 1023.7959,965.85231 L 907.86368,965.85231 L 907.86368,975.51333 L 965.82978,975.52538 L 965.82978,1004.4965 L 907.86368,1004.4965 L 907.86368,1014.1574 L 975.4908,1014.1574 L 975.4908,975.52538 L 1023.7959,975.52538 L 1023.7959,1023.8185 L 1014.1349,1023.8185 L 1014.1349,985.17452 L 985.15181,985.17452 L 985.15181,994.84752 L 1004.4738,994.84752 L 1004.4738,1033.4794 L 1033.4569,1033.4795 L 1033.4569,463.47952 L 463.4569,463.47965 z M 733.96537,502.12358 L 733.96537,521.44561 L 714.64333,521.44561 L 714.64333,540.76764 L 675.99927,540.76764 L 675.99927,608.39474 L 714.64333,608.39474 L 714.64333,627.71677 L 724.30435,627.71677 L 724.30435,608.39474 L 733.96537,608.39474 L 733.96537,666.36083 L 743.62639,666.36083 L 743.62639,598.73373 L 685.66028,598.73373 L 685.66028,550.42865 L 714.64333,550.42865 L 714.64333,560.08967 L 695.3213,560.08967 L 695.3213,589.07271 L 704.98232,589.07271 L 704.98232,569.75068 L 772.60944,569.75068 L 772.60944,608.39474 L 791.93147,608.39474 L 791.93147,705.00489 L 830.57554,705.00489 L 830.57554,724.32692 L 840.23655,724.32692 L 840.23655,705.00489 L 888.54164,705.00489 L 888.54164,714.66591 L 849.89758,714.66591 L 849.89758,733.98794 L 820.91452,733.98794 L 820.91452,714.66591 L 782.27045,714.66591 L 782.27045,618.05576 L 772.60944,618.05576 L 772.60944,724.32692 L 811.2535,724.32692 L 811.2535,733.98794 L 762.94842,733.98794 L 762.94842,695.34388 L 753.2874,695.34388 L 666.33825,695.34388 L 666.33825,666.36083 L 695.3213,666.36083 L 695.3213,676.02185 L 675.99927,676.02185 L 675.99927,685.68286 L 704.98232,685.68286 L 704.98232,656.69982 L 656.67723,656.69982 L 656.67723,705.00489 L 753.2874,705.00489 L 753.2874,733.98794 L 704.98232,733.98794 L 704.98232,724.32692 L 743.62639,724.32692 L 743.62639,714.66591 L 647.01622,714.66591 L 647.01622,627.71677 L 647.01622,618.05576 L 579.3891,618.05576 L 579.3891,656.69982 L 550.40605,656.69982 L 550.40605,618.05576 L 531.08401,618.05576 L 531.08401,598.73373 L 521.423,598.73373 L 521.423,637.37779 L 511.76198,637.37779 L 511.76198,589.07271 L 560.06706,589.07271 L 560.06706,598.73373 L 540.74503,598.73373 L 540.74503,608.39474 L 560.06706,608.39474 L 560.06706,647.0388 L 569.72808,647.0388 L 569.72808,569.75068 L 569.72808,550.42878 L 598.71113,550.42878 L 598.71113,560.0898 L 579.3891,560.0898 L 579.3891,569.75068 L 608.37215,569.75068 L 608.37215,540.76764 L 560.06706,540.76764 L 560.06706,579.4117 L 511.76198,579.4117 L 511.76198,540.76764 L 482.77893,540.76764 L 482.77893,569.75068 L 492.43995,569.75068 L 492.43995,550.42865 L 502.10096,550.42865 L 502.10096,647.0388 L 531.08401,647.0388 L 531.08401,627.71677 L 540.74503,627.71677 L 540.74503,666.36083 L 579.3891,666.36083 L 579.3891,685.68286 L 589.05012,685.68286 L 589.05012,666.36083 L 618.03317,666.36083 L 618.03317,705.00489 L 627.69418,705.00489 L 627.69418,637.37779 L 598.71113,637.37779 L 598.71113,647.0388 L 618.03317,647.0388 L 618.03317,656.69982 L 589.05012,656.69982 L 589.05012,627.71677 L 637.3552,627.71677 L 637.3552,714.66591 L 608.37215,714.66591 L 608.37215,676.02185 L 598.71113,676.02185 L 598.71113,733.98794 L 550.40605,733.98794 L 550.40605,695.34388 L 540.74503,695.34388 L 540.74503,714.66591 L 492.43995,714.66591 L 492.43995,705.00489 L 511.76198,705.00489 L 511.76198,676.02185 L 502.10096,676.02185 L 502.10096,695.34388 L 473.11791,695.34388 L 473.11791,531.10662 L 511.76198,531.10662 L 511.76198,521.44561 L 463.4569,521.44561 L 463.4569,1033.4795 L 994.81283,1033.4794 L 994.81283,1004.4965 L 985.15181,1004.4965 L 985.15181,1023.8185 L 898.20266,1023.8185 L 898.20266,994.84752 L 956.16876,994.84752 L 956.16876,985.17452 L 878.88063,985.17452 L 878.88063,936.88132 L 994.81283,936.86926 L 994.81283,898.23725 L 1004.4738,898.23725 L 1004.4738,946.53028 L 888.54164,946.53028 L 888.54164,975.51333 L 898.20266,975.51333 L 898.20266,956.20335 L 1014.1349,956.19129 L 1014.1349,888.56417 L 985.15181,888.56417 L 985.15181,927.20824 L 936.84673,927.2203 L 936.84673,869.24252 L 927.18571,869.24252 L 927.18571,927.20824 L 849.89758,927.20824 L 849.89758,1014.1574 L 878.88063,1014.1574 L 878.88063,1004.4965 L 859.55859,1004.4965 L 859.55859,936.88132 L 869.21961,936.88132 L 869.21961,994.84752 L 888.54164,994.84752 L 888.54164,1023.8185 L 685.66028,1023.8185 L 685.66028,975.52538 L 724.30435,975.51333 L 724.30435,936.88132 L 733.96537,936.88132 L 733.96537,1004.4965 L 704.98232,1004.4965 L 704.98232,994.84752 L 724.30435,994.84752 L 724.30435,985.17452 L 695.3213,985.17452 L 695.3213,1014.1574 L 840.23655,1014.1574 L 840.23655,927.20824 L 830.57554,927.20824 L 830.57554,1004.4965 L 743.62639,1004.4965 L 743.62639,927.20824 L 714.64333,927.20824 L 714.64333,965.85231 L 666.33825,965.86437 L 666.33825,907.88621 L 656.67723,907.88621 L 656.67723,985.17452 L 560.06706,985.17452 L 560.06706,994.84752 L 666.33825,994.84752 L 666.33825,975.52538 L 675.99927,975.52538 L 675.99927,1023.8185 L 531.08401,1023.8185 L 531.08401,1004.4965 L 521.423,1004.4965 L 521.423,1023.8185 L 492.43995,1023.8185 L 492.43995,1004.4965 L 482.77893,1004.4965 L 482.77893,1023.8185 L 473.11791,1023.8185 L 473.11791,994.84752 L 502.10096,994.84752 L 502.10096,1014.1574 L 511.76198,1014.1574 L 511.76198,994.84752 L 540.74503,994.84752 L 540.74503,1014.1574 L 666.33825,1014.1574 L 666.33825,1004.4965 L 550.40605,1004.4965 L 550.40605,985.17452 L 511.76198,985.17452 L 511.76198,888.56417 L 502.10096,888.56417 L 502.10096,985.17452 L 473.11791,985.17452 L 473.11791,840.2591 L 502.10096,840.2591 L 502.10096,869.24252 L 492.43995,869.24252 L 492.43995,849.92011 L 482.77893,849.92011 L 482.77893,975.51333 L 492.43995,975.51333 L 492.43995,878.91521 L 511.76198,878.90316 L 511.76198,753.30996 L 482.77893,753.30996 L 482.77893,820.93707 L 492.43995,820.93707 L 492.43995,762.97111 L 502.10096,762.97111 L 502.10096,830.59808 L 473.11791,830.59808 L 473.11791,743.64895 L 521.423,743.64895 L 521.423,840.2591 L 540.74503,840.2591 L 540.74503,936.86926 L 560.06706,936.88132 L 560.06706,956.19129 L 569.72808,956.19129 L 569.72808,869.24252 L 560.06706,869.24252 L 560.06706,927.20852 L 550.40605,927.20852 L 550.40605,859.58112 L 579.3891,859.58112 L 579.3891,956.19129 L 589.05012,956.19129 L 589.05012,859.58112 L 627.69418,859.58112 L 627.69418,849.92011 L 550.40605,849.92011 L 550.40605,830.59808 L 531.08401,830.59808 L 531.08401,733.98794 L 473.11791,733.98794 L 473.11791,705.00489 L 482.77893,705.00489 L 482.77893,724.32692 L 540.74503,724.32692 L 540.74503,820.93707 L 560.06706,820.93707 L 560.06706,840.2591 L 589.05012,840.2591 L 589.05012,772.63199 L 579.3891,772.63199 L 579.3891,830.59808 L 569.72808,830.59808 L 569.72808,811.27605 L 550.40605,811.27605 L 550.40605,743.64895 L 627.69418,743.64895 L 627.69418,733.98794 L 608.37215,733.98794 L 608.37215,724.32692 L 637.3552,724.32692 L 637.3552,753.30996 L 560.06706,753.30996 L 560.06706,801.61504 L 569.72808,801.61504 L 569.72808,762.97111 L 598.71113,762.97098 L 598.71113,840.2591 L 647.01622,840.2591 L 647.01622,830.59808 L 608.37215,830.59808 L 608.37215,762.97098 L 647.01622,762.97098 L 647.01622,724.32692 L 695.3213,724.32692 L 695.3213,743.64895 L 811.2535,743.64895 L 811.2535,791.95402 L 714.64333,791.95402 L 714.64333,859.58112 L 801.59249,859.58112 L 801.59249,840.2591 L 849.89758,840.2591 L 849.89758,869.24252 L 820.91452,869.24252 L 820.91452,859.58112 L 840.23655,859.58112 L 840.23655,849.92011 L 811.2535,849.92011 L 811.2535,869.24252 L 714.64333,869.24252 L 714.64333,878.90316 L 859.55859,878.90316 L 859.55859,830.59808 L 753.2874,830.59808 L 753.2874,840.2591 L 791.93147,840.2591 L 791.93147,849.92011 L 743.62639,849.92011 L 743.62639,820.93707 L 859.55859,820.93707 L 859.55859,791.95402 L 840.23655,791.95402 L 840.23655,762.97098 L 898.20266,762.97098 L 898.20266,753.30996 L 878.88063,753.30996 L 878.88063,743.64895 L 907.86368,743.64895 L 907.86368,820.93707 L 956.16876,820.93707 L 956.16876,772.63199 L 927.18571,772.63199 L 927.18571,801.61504 L 936.84673,801.61504 L 936.84673,782.29301 L 946.50774,782.29301 L 946.50774,811.27605 L 917.52469,811.27605 L 917.52469,762.97098 L 965.82978,762.97098 L 965.82978,820.93707 L 994.81283,820.93707 L 994.81283,811.27605 L 975.4908,811.27605 L 975.4908,753.30996 L 917.52469,753.30996 L 917.52469,714.66591 L 907.86368,714.66591 L 907.86368,733.98794 L 869.21961,733.98794 L 869.21961,753.30996 L 830.57554,753.30996 L 830.57554,801.61504 L 849.89758,801.61504 L 849.89758,811.27605 L 733.96537,811.27605 L 733.96537,849.92011 L 724.30435,849.92011 L 724.30435,801.61504 L 820.91452,801.61504 L 820.91452,743.64895 L 859.55859,743.64895 L 859.55859,724.32692 L 898.20266,724.32692 L 898.20266,705.00489 L 927.18571,705.00489 L 927.18571,743.64895 L 936.84673,743.64895 L 936.84673,695.34388 L 801.59249,695.34388 L 801.59249,647.0388 L 878.88063,647.0388 L 878.88063,598.73373 L 849.89758,598.73373 L 849.89758,627.71677 L 859.55859,627.71677 L 859.55859,608.39474 L 869.21961,608.39474 L 869.21961,637.37779 L 840.23655,637.37779 L 840.23655,589.07271 L 878.88063,589.07271 L 878.88063,540.76764 L 869.21961,540.76764 L 869.21961,560.08967 L 830.57554,560.08967 L 830.57554,569.75068 L 869.21961,569.75068 L 869.21961,579.4117 L 820.91452,579.4117 L 820.91452,550.42865 L 859.55859,550.42865 L 859.55859,511.78459 L 869.21961,511.78459 L 869.21961,531.10662 L 878.88063,531.10662 L 878.88063,502.12358 L 849.89758,502.12358 L 849.89758,540.76764 L 811.2535,540.76764 L 811.2535,627.71677 L 820.91452,627.71677 L 820.91452,589.07271 L 830.57554,589.07271 L 830.57554,637.37779 L 801.59249,637.37779 L 801.59249,598.73373 L 782.27045,598.73373 L 782.27045,560.08967 L 724.30435,560.08967 L 724.30435,531.10662 L 743.62639,531.10662 L 743.62639,502.12358 L 733.96537,502.12358 z M 753.2874,502.12358 L 753.2874,540.76764 L 733.96537,540.76764 L 733.96537,550.42865 L 791.93147,550.42865 L 791.93147,589.07271 L 801.59249,589.07271 L 801.59249,531.10662 L 840.23655,531.10662 L 840.23655,502.12358 L 830.57554,502.12358 L 830.57554,521.44561 L 772.60944,521.44561 L 772.60944,531.10662 L 791.93147,531.10662 L 791.93147,540.76764 L 762.94842,540.76764 L 762.94842,511.78459 L 820.91452,511.78459 L 820.91452,502.12358 L 753.2874,502.12358 z M 482.77893,579.4117 L 482.77893,685.68286 L 492.43995,685.68286 L 492.43995,666.36083 L 511.76198,666.36083 L 511.76198,656.69982 L 492.43995,656.69982 L 492.43995,579.4117 L 482.77893,579.4117 z M 521.423,656.69982 L 521.423,705.00489 L 531.08401,705.00489 L 531.08401,685.68286 L 560.06706,685.68286 L 560.06706,724.32692 L 589.05012,724.32692 L 589.05012,695.34388 L 579.3891,695.34388 L 579.3891,714.66591 L 569.72808,714.66591 L 569.72808,695.34388 L 569.72808,676.02185 L 531.08401,676.02185 L 531.08401,656.69982 L 521.423,656.69982 z"
       id="rect2383"
       style="fill:#000000;fill-opacity:1;fill-rule:nonzero;stroke:none;stroke-width:3.5;stroke-linecap:square;stroke-linejoin:miter;stroke-miterlimit:4;stroke-opacity:1" />
  </g>
</svg>
